
<svg width="182" height="194" viewBox="0 0 182 194" fill="none" xmlns="http://www.w3.org/2000/svg">
<path fill-rule="evenodd" clip-rule="evenodd" d="M36.9759 79.9203L37.884 44.0466C37.884 25.1433 48.9444 15.7789 64.9435 20.5213C66.3503 20.9383 68.3711 22.8326 68.3711 24.5135L68.6992 58.8986C68.7144 60.4954 70.0132 61.7819 71.6101 61.7819C73.2178 61.7819 74.5211 60.4786 74.5211 58.8709V17.2908C74.5211 8.079 81.9888 0.611328 91.2006 0.611328C100.412 0.611328 107.88 8.079 107.88 17.2908V58.8709C107.88 60.4786 109.183 61.7819 110.791 61.7819C112.388 61.7819 113.687 60.4955 113.702 58.8987L114.03 24.5323C114.03 22.8363 116.152 20.936 117.571 20.5213C131.437 16.4694 144.178 24.0284 144.178 43.678L145.059 79.597C130.119 87.2225 115.745 88.7924 99.264 83.6696C92.9744 80.5859 88.4435 81.1296 81.9627 83.6662C65.6184 87.3378 51.7212 87.5032 36.9759 79.9203ZM32.9123 83.3107C36.0335 84.8063 39.1557 86.3023 42.3797 87.4034L48.9725 89.655C60.172 93.1837 71.226 91.7569 82.0761 88.3791C87.7185 85.5488 93.5447 85.9966 99.318 88.3791C110.736 93.0912 120.682 93.08 132.777 89.7385L132.79 89.655L139.383 87.4034C142.607 86.3023 145.73 84.8062 148.851 83.3106C157.453 79.189 170.845 80.4679 179.89 90.7812C184.036 95.5086 180.828 102.349 174.86 104.328C171.982 105.283 169.376 106.899 166.94 108.704C166.664 108.909 166.383 109.113 166.099 109.317C158.582 114.711 153.745 122.79 153.264 132.029L153.042 136.292C153.058 137.782 153.029 139.279 152.951 140.777C150.752 161.811 137.183 179.94 117.621 187.977C100.535 194.997 81.3706 194.997 64.2849 187.977C44.7232 179.94 31.1535 161.811 28.9544 140.777L28.4987 132.029C28.0175 122.79 23.1807 114.711 15.6644 109.317C15.3799 109.113 15.0992 108.909 14.8231 108.704C12.3869 106.899 9.7805 105.283 6.9027 104.328C0.934577 102.349 -2.27342 95.5086 1.87258 90.7812C10.9177 80.4679 24.3106 79.1891 32.9123 83.3107Z" fill="#FD4848"/>
<path fill-rule="evenodd" clip-rule="evenodd" d="M64.2079 123.435C60.725 126.594 57.8494 129.798 55.7794 132.312C54.8456 133.445 54.3523 134.056 54.0501 134.563C53.8223 134.945 53.7991 135.111 53.7991 135.304C53.7991 135.496 53.8223 135.663 54.0501 136.044C54.3523 136.551 54.8456 137.162 55.7794 138.296C57.9128 140.886 60.9021 144.21 64.53 147.462C62.8411 143.692 61.8995 139.497 61.8995 135.076C61.8995 130.944 62.7218 127.01 64.2079 123.435ZM117.523 146.856C120.851 143.8 123.604 140.725 125.605 138.296C126.539 137.162 127.032 136.551 127.335 136.044C127.562 135.663 127.586 135.496 127.586 135.304C127.586 135.111 127.562 134.945 127.335 134.563C127.032 134.056 126.539 133.445 125.605 132.312C123.664 129.955 121.014 126.99 117.819 124.025C119.155 127.441 119.89 131.17 119.89 135.076C119.89 139.261 119.046 143.244 117.523 146.856ZM90.6923 105.181C81.5974 105.181 73.3291 109.184 66.6536 113.987C59.9552 118.806 54.6113 124.608 51.3032 128.625C51.2054 128.743 51.1069 128.862 51.008 128.982C49.538 130.754 48 132.608 48 135.304C48 137.999 49.538 139.853 51.008 141.626C51.1069 141.745 51.2054 141.864 51.3032 141.982C54.6113 145.999 59.9552 151.801 66.6536 156.62C73.3291 161.423 81.5974 165.427 90.6923 165.427C99.787 165.427 108.055 161.423 114.731 156.62C121.429 151.801 126.773 145.999 130.081 141.982C130.179 141.864 130.278 141.745 130.377 141.626C131.847 139.853 133.385 137.999 133.385 135.304C133.385 132.608 131.847 130.754 130.377 128.982C130.278 128.862 130.179 128.743 130.081 128.625C126.773 124.608 121.429 118.806 114.731 113.987C108.055 109.184 99.787 105.181 90.6923 105.181ZM90.8948 158.997C103.572 158.997 114.091 148.423 114.091 135.076C114.091 121.729 103.572 111.155 90.8948 111.155C78.218 111.155 67.6985 121.729 67.6985 135.076C67.6985 148.423 78.218 158.997 90.8948 158.997ZM103.794 135.317C103.794 142.524 97.953 148.365 90.7464 148.365C83.5403 148.365 77.6985 142.524 77.6985 135.317C77.6985 128.111 83.5403 122.27 90.7464 122.27C97.953 122.27 103.794 128.111 103.794 135.317ZM109.593 135.317C109.593 145.726 101.155 154.164 90.7464 154.164C80.3375 154.164 71.8995 145.726 71.8995 135.317C71.8995 124.909 80.3375 116.47 90.7464 116.47C101.155 116.47 109.593 124.909 109.593 135.317ZM93.8995 135C93.8995 136.657 92.5563 138 90.8995 138C89.2426 138 87.8995 136.657 87.8995 135C87.8995 133.343 89.2426 132 90.8995 132C92.5563 132 93.8995 133.343 93.8995 135ZM98.899 135C98.899 139.418 95.318 143 90.8995 143C86.4812 143 82.8995 139.418 82.8995 135C82.8995 130.582 86.4812 127 90.8995 127C95.318 127 98.899 130.582 98.899 135Z" fill="#D6FE81"/>
</svg>
